<svg xmlns="http://www.w3.org/2000/svg" width="30" height="24" viewBox="0 0 30 24"><defs><style>.a{fill:#65b2ff;}</style></defs><path class="a" d="M-9.822.75l-1.348-13.5H.75a.75.75,0,0,0,.75-.75v-.75A.75.75,0,0,0,.75-15H-5.309l.937-3.75H-2.25a.75.75,0,0,0,.75-.75v-.75A.75.75,0,0,0-2.25-21H-4.664a1.971,1.971,0,0,0-1.819,1.42L-7.628-15H-14.25a.75.75,0,0,0-.75.75v.75a.75.75,0,0,0,.75.75h.819L-12,1.607A1.516,1.516,0,0,0-10.507,3H-3a1.771,1.771,0,0,0,.474-.091A6.437,6.437,0,0,1-3.83.75ZM9.75-6.375a.75.75,0,0,0,.75-.75.75.75,0,0,0-.75-.75.75.75,0,0,0-.75.75A.75.75,0,0,0,9.75-6.375ZM6-7.125a.75.75,0,0,0,.75-.75A.75.75,0,0,0,6-8.625a.75.75,0,0,0-.75.75A.75.75,0,0,0,6-7.125Zm9,3.75a1.844,1.844,0,0,0-.75-1.462,3.993,3.993,0,0,0,.375-1.544,3.945,3.945,0,0,0-.614-1.939A9.911,9.911,0,0,0,6-12,9.906,9.906,0,0,0-2.007-8.321a3.943,3.943,0,0,0-.617,1.942A3.992,3.992,0,0,0-2.25-4.837,1.839,1.839,0,0,0-3-3.375,2.125,2.125,0,0,0-2.407-2.02,3.332,3.332,0,0,0-2.625-.938h0A3.945,3.945,0,0,0,1.312,3h9.375A3.945,3.945,0,0,0,14.625-.937h0a3.332,3.332,0,0,0-.218-1.082A2.125,2.125,0,0,0,15-3.375ZM-.167-7.029A7.638,7.638,0,0,1,6-9.75a7.625,7.625,0,0,1,6.167,2.722,1.321,1.321,0,0,1,.206.65A1.129,1.129,0,0,1,11.245-5.25H.755A1.129,1.129,0,0,1-.373-6.378,1.321,1.321,0,0,1-.167-7.029ZM10.687.75H1.312A1.688,1.688,0,0,1-.375-.937.563.563,0,0,1,.187-1.5H11.812a.563.563,0,0,1,.562.562A1.688,1.688,0,0,1,10.687.75ZM2.25-6.375A.75.75,0,0,0,3-7.125a.75.75,0,0,0-.75-.75.75.75,0,0,0-.75.75A.75.75,0,0,0,2.25-6.375Z" transform="translate(15 21)"/></svg>