<svg xmlns="http://www.w3.org/2000/svg" width="25.5" height="24" viewBox="0 0 25.5 24"><defs><style>.a{fill:#65b2ff;}</style></defs><path class="a" d="M.75-13.617a39.585,39.585,0,0,0-.731-5.236A2.775,2.775,0,0,0-2.878-21a3.353,3.353,0,0,0-1.561.366A3.37,3.37,0,0,0-6-21a3.37,3.37,0,0,0-1.561.366A3.34,3.34,0,0,0-9.122-21a2.773,2.773,0,0,0-2.9,2.147,39.355,39.355,0,0,0-.731,5.236,6.058,6.058,0,0,0,3.272,5.47L-9.956.323A2.542,2.542,0,0,0-7.406,3h2.812A2.542,2.542,0,0,0-2.044.323l-.478-8.475A6.052,6.052,0,0,0,.75-13.617ZM-4.861-9.7-4.289.45a.294.294,0,0,1-.3.3H-7.406a.294.294,0,0,1-.3-.3L-7.139-9.7A3.907,3.907,0,0,1-10.5-13.617a41.1,41.1,0,0,1,.694-4.814c.075-.431,1.327-.422,1.383.009v5.33c.042.5,1.322.506,1.383.009l.347-5.348c.075-.422,1.308-.422,1.383,0l.347,5.348c.061.5,1.341.487,1.383-.009v-5.33c.056-.431,1.308-.441,1.383-.009A41.1,41.1,0,0,1-1.5-13.617,3.9,3.9,0,0,1-4.861-9.7ZM5.508-6.441,4.884.239A2.569,2.569,0,0,0,7.5,3h2.625A2.581,2.581,0,0,0,12.75.469V-18.469A2.581,2.581,0,0,0,10.125-21C6.759-21,2.25-17.109,2.25-12.483A7.679,7.679,0,0,0,5.508-6.441ZM4.5-12.483c0-3.4,3.534-6.267,5.625-6.267.2,0,.375.131.375.281V.469c0,.155-.173.281-.375.281H7.5c-.216,0-.389-.141-.375-.3L7.866-7.5C6.009-8.761,4.5-10.261,4.5-12.483Z" transform="translate(12.75 21)"/></svg>