<svg xmlns="http://www.w3.org/2000/svg" width="23.25" height="23.25" viewBox="0 0 23.25 23.25"><defs><style>.a{fill:#fff;}</style></defs><path class="a" d="M5.423-9.844l-8.25-5.016a1.127,1.127,0,0,0-1.673.984v9.75a1.128,1.128,0,0,0,1.673.984l8.25-4.734A1.129,1.129,0,0,0,5.423-9.844Zm6.2.844A11.623,11.623,0,0,0,0-20.625,11.623,11.623,0,0,0-11.625-9,11.623,11.623,0,0,0,0,2.625,11.623,11.623,0,0,0,11.625-9Zm-21,0A9.372,9.372,0,0,1,0-18.375,9.372,9.372,0,0,1,9.375-9,9.372,9.372,0,0,1,0,.375,9.372,9.372,0,0,1-9.375-9Z" transform="translate(11.625 20.625)"/></svg>