<svg xmlns="http://www.w3.org/2000/svg" width="30" height="24" viewBox="0 0 30 24"><defs><style>.a{fill:#65b2ff;}</style></defs><path class="a" d="M-1.5-7.5C-.879-7.5-.375-8.172-.375-9s-.5-1.5-1.125-1.5S-2.625-9.828-2.625-9-2.121-7.5-1.5-7.5ZM14.25.75H9V-15.682A2.287,2.287,0,0,0,6.75-18H3v-1.445A1.529,1.529,0,0,0,1.5-21a1.449,1.449,0,0,0-.367.047l-9,2.332A1.545,1.545,0,0,0-9-17.113V.75h-5.25A.75.75,0,0,0-15,1.5v.75a.75.75,0,0,0,.75.75h28.5A.75.75,0,0,0,15,2.25V1.5A.75.75,0,0,0,14.25.75ZM.75.75h-7.5V-16.585l7.5-1.943Zm6,0H3v-16.5H6.75Z" transform="translate(15 21)"/></svg>