<svg xmlns="http://www.w3.org/2000/svg" xmlns:xlink="http://www.w3.org/1999/xlink" width="123.561" height="125.927" viewBox="0 0 123.561 125.927"><defs><style>.a{fill:#fc7979;}.b{clip-path:url(#a);}.c,.e{fill:#fff;stroke:#65b2ff;stroke-width:8px;}.d{clip-path:url(#b);}.e{stroke-linejoin:round;}.f{clip-path:url(#c);}.g{clip-path:url(#d);}.h{fill:#65ffc4;}.i,.k{fill:none;}.i{stroke:#65ffc4;stroke-linecap:round;stroke-width:7px;}.j{stroke:none;}</style><clipPath id="a"><path class="a" d="M0-1H38.308V20.461H15.187V36.066H0Z" transform="translate(0 1)"/></clipPath><clipPath id="b"><path class="a" d="M39.308-1H1V20.461H24.121V41H39.308Z" transform="translate(-1 1)"/></clipPath><clipPath id="c"><path class="a" d="M0,36.065H38.309V14.6H15.187V-1H0Z" transform="translate(0 1)"/></clipPath><clipPath id="d"><path class="a" d="M39.309,41H1V19.541H24.121V-1H39.309Z" transform="translate(-1 1)"/></clipPath></defs><g transform="translate(-917.246 -539.299)"><g transform="translate(917.246 539.299)"><g class="b" transform="translate(0 0)"><g class="c" transform="translate(-0.246 4.701)"><rect class="j" width="50" height="49" rx="2"/><rect class="k" x="4" y="4" width="42" height="41" rx="2"/></g></g><g class="d" transform="translate(85.251 0)"><g class="e" transform="translate(-15.497 4.701)"><rect class="j" width="54" height="49" rx="2"/><rect class="k" x="4" y="4" width="46" height="41" rx="2"/></g></g><g class="f" transform="translate(0.001 88.862)"><g class="c" transform="translate(0.861 -16.134)"><rect class="j" width="49.368" height="49.366" rx="2"/><rect class="k" x="4" y="4" width="41.368" height="41.366" rx="2"/></g></g><g class="g" transform="translate(85.252 83.925)"><g class="c" transform="translate(-15.27 -11.197)"><rect class="j" width="54.305" height="49.366" rx="2"/><rect class="k" x="4" y="4" width="46.305" height="41.366" rx="2"/></g></g></g><ellipse class="h" cx="4" cy="3.5" rx="4" ry="3.5" transform="translate(955 586)"/><ellipse class="h" cx="4" cy="3.5" rx="4" ry="3.5" transform="translate(992 586)"/><rect class="h" width="5" height="19" rx="2.5" transform="translate(970 593)"/><path class="i" d="M-10070-8130s17.633,23.432,43.8,0" transform="translate(11025.37 8747.014)"/></g></svg>