<svg xmlns="http://www.w3.org/2000/svg" width="130.662" height="38.833" viewBox="0 0 130.662 38.833"><defs><style>.a,.b{fill:none;stroke-linecap:round;stroke-width:5px;}.a{stroke:#65ffc4;}.b{stroke:#65b2ff;}.c{fill:#666;}</style></defs><g transform="translate(2.522 2.5)"><path class="a" d="M-9742.2-6881.588h16.357c.262,0,1.449,6.277-2.259,8.965s-11.124,7.266-14.1,9.588-2.366,15.033-2.366,15.2,19.12,0,19.12,0" transform="translate(9744.612 6881.588)"/><path class="b" d="M-9725.837-6881.588h-18.379c-.263,0-1.45,6.277,2.257,8.965s11.127,7.266,14.1,9.588,2.367,15.033,2.367,15.2-19.12,0-19.12,0" transform="translate(9744.612 6881.588)"/><path class="c" d="M7.7-8.4a7.157,7.157,0,0,1,1.74.5,3.2,3.2,0,0,1,1.12.81,2.918,2.918,0,0,1,.6,1.16,6,6,0,0,1,.18,1.55v.3a5.429,5.429,0,0,1-.28,1.85,2.8,2.8,0,0,1-.94,1.28A4.363,4.363,0,0,1,8.38-.2,12.5,12.5,0,0,1,5.72.04H3.65Q3.04.04,2.27.03T.52,0l.5-2.68q1.58.04,2.69.04H5.76a6.987,6.987,0,0,0,1.09-.07,1.8,1.8,0,0,0,.68-.23.8.8,0,0,0,.34-.43,2.221,2.221,0,0,0,.09-.69,3.46,3.46,0,0,0-.05-.64.807.807,0,0,0-.22-.43,1.285,1.285,0,0,0-.46-.28,4.17,4.17,0,0,0-.77-.19l-2.1-.36a8.94,8.94,0,0,1-1.9-.51,3.2,3.2,0,0,1-1.17-.79A2.594,2.594,0,0,1,.7-8.4,6.585,6.585,0,0,1,.54-9.94v-.32a4.784,4.784,0,0,1,.28-1.7,2.947,2.947,0,0,1,.92-1.26,4.375,4.375,0,0,1,1.67-.79,10.036,10.036,0,0,1,2.51-.27H8.09q.59,0,1.28.01t1.57.03l-.5,2.68q-1.56-.04-2.65-.04H5.86a5.95,5.95,0,0,0-1,.07,1.6,1.6,0,0,0-.62.22.8.8,0,0,0-.31.41,1.973,1.973,0,0,0-.09.64,2.889,2.889,0,0,0,.05.58.814.814,0,0,0,.2.4,1.163,1.163,0,0,0,.43.27,3.916,3.916,0,0,0,.74.19Zm10.08-2.38a10.151,10.151,0,0,1,2.38.24,3.443,3.443,0,0,1,1.59.82,3.377,3.377,0,0,1,.89,1.54,8.716,8.716,0,0,1,.28,2.4v1.1a8.628,8.628,0,0,1-.28,2.38,3.377,3.377,0,0,1-.89,1.54,3.518,3.518,0,0,1-1.59.83,9.761,9.761,0,0,1-2.38.25A9.761,9.761,0,0,1,15.4.07a3.591,3.591,0,0,1-1.6-.83,3.333,3.333,0,0,1-.9-1.54,8.628,8.628,0,0,1-.28-2.38v-1.1a8.716,8.716,0,0,1,.28-2.4,3.333,3.333,0,0,1,.9-1.54,3.514,3.514,0,0,1,1.6-.82A10.151,10.151,0,0,1,17.78-10.78Zm1.92,4.9a7.77,7.77,0,0,0-.08-1.25,1.437,1.437,0,0,0-.3-.72,1.111,1.111,0,0,0-.59-.34,4.13,4.13,0,0,0-.95-.09,4.13,4.13,0,0,0-.95.09,1.111,1.111,0,0,0-.59.34,1.5,1.5,0,0,0-.31.72,6.922,6.922,0,0,0-.09,1.25V-4.6a7.1,7.1,0,0,0,.09,1.26,1.512,1.512,0,0,0,.31.73,1.111,1.111,0,0,0,.59.34,4.13,4.13,0,0,0,.95.09,4.13,4.13,0,0,0,.95-.09,1.111,1.111,0,0,0,.59-.34,1.449,1.449,0,0,0,.3-.73A7.966,7.966,0,0,0,19.7-4.6ZM29.86-12.4a2.248,2.248,0,0,0-1.59.43,2.107,2.107,0,0,0-.43,1.51h3.14l-.48,2.5H27.84V0H24.66V-10.04a8.239,8.239,0,0,1,.27-2.27,3.279,3.279,0,0,1,.87-1.5,3.577,3.577,0,0,1,1.58-.83,9.592,9.592,0,0,1,2.42-.26q.62,0,1.08.01t.86.03l-.48,2.48q-.52-.02-.81-.02Zm5.18,4.44v3.78a4.909,4.909,0,0,0,.06.85,1,1,0,0,0,.24.52.94.94,0,0,0,.49.26,3.921,3.921,0,0,0,.83.07h.97q.27,0,.51-.01t.34-.01L38,0h-.32q-.22,0-.48.01t-.52.01h-.42a10.487,10.487,0,0,1-2.2-.19,2.766,2.766,0,0,1-1.35-.66,2.455,2.455,0,0,1-.67-1.27,9.43,9.43,0,0,1-.18-2.02v-8.44l3.18-.46v2.56h3.64l-.48,2.5Zm7.68.52a.549.549,0,0,0,.2.47,2.015,2.015,0,0,0,.9.21l1.84.16a5.169,5.169,0,0,1,1.54.34,2.8,2.8,0,0,1,.99.66,2.254,2.254,0,0,1,.52.93,4.209,4.209,0,0,1,.15,1.15v.34a2.786,2.786,0,0,1-1.1,2.44A6.061,6.061,0,0,1,44.3.04H42.23q-.65,0-1.33-.01T39.6,0l.44-2.46q1,.02,2.2.03t2.16.01a3,3,0,0,0,1.13-.14.578.578,0,0,0,.29-.58.632.632,0,0,0-.2-.51,1.7,1.7,0,0,0-.9-.21L42.76-4a3.241,3.241,0,0,1-2.36-.96,3.11,3.11,0,0,1-.7-2.06V-7.4a3.351,3.351,0,0,1,.24-1.31,2.345,2.345,0,0,1,.77-.97,3.776,3.776,0,0,1,1.39-.61,8.992,8.992,0,0,1,2.1-.21h1.74q.52,0,1.19.01t1.53.03L48.2-8q-.92-.02-1.59-.03t-1.17-.01H44a3.384,3.384,0,0,0-1,.1Q42.72-7.84,42.72-7.44ZM50.5,0V-14.86h3.18v4.8a3.334,3.334,0,0,1,1-.51,5.4,5.4,0,0,1,1.68-.21,4.7,4.7,0,0,1,2.95.83,3.194,3.194,0,0,1,1.07,2.69V0H57.2V-6.6a3.727,3.727,0,0,0-.06-.72,1.033,1.033,0,0,0-.24-.5,1.031,1.031,0,0,0-.51-.29,3.411,3.411,0,0,0-.87-.09,3.423,3.423,0,0,0-.9.1,1.219,1.219,0,0,0-.57.32,1.2,1.2,0,0,0-.29.59,4.389,4.389,0,0,0-.08.91V0ZM65.3-4.16a3.727,3.727,0,0,0,.11.84,1.046,1.046,0,0,0,.32.52,1.257,1.257,0,0,0,.61.27,5.446,5.446,0,0,0,.96.07h1.77q.95,0,2.13-.02L70.74,0q-1,.04-1.86.04H67a8.135,8.135,0,0,1-2.36-.29,3.4,3.4,0,0,1-1.5-.88,3.305,3.305,0,0,1-.79-1.48,8.415,8.415,0,0,1-.23-2.09V-5.8a8.5,8.5,0,0,1,.25-2.19,3.532,3.532,0,0,1,.84-1.55,3.635,3.635,0,0,1,1.54-.93,7.662,7.662,0,0,1,2.35-.31,5.061,5.061,0,0,1,3.6,1.05A3.9,3.9,0,0,1,71.78-6.8v.42A5.956,5.956,0,0,1,71.7-5.3a1.515,1.515,0,0,1-.29.68,1.079,1.079,0,0,1-.55.36,3.019,3.019,0,0,1-.84.1Zm1.72-4.28a3.411,3.411,0,0,0-.87.09.991.991,0,0,0-.52.32,1.335,1.335,0,0,0-.26.63,6.25,6.25,0,0,0-.07,1.04h3.46a6.25,6.25,0,0,0-.07-1.04,1.276,1.276,0,0,0-.27-.63,1.047,1.047,0,0,0-.53-.32A3.411,3.411,0,0,0,67.02-8.44Zm9.16,4.28a3.728,3.728,0,0,0,.11.84,1.046,1.046,0,0,0,.32.52,1.257,1.257,0,0,0,.61.27,5.446,5.446,0,0,0,.96.07h1.77q.95,0,2.13-.02L81.62,0q-1,.04-1.86.04H77.88a8.135,8.135,0,0,1-2.36-.29,3.4,3.4,0,0,1-1.5-.88,3.305,3.305,0,0,1-.79-1.48A8.415,8.415,0,0,1,73-4.7V-5.8a8.5,8.5,0,0,1,.25-2.19,3.532,3.532,0,0,1,.84-1.55,3.635,3.635,0,0,1,1.54-.93,7.662,7.662,0,0,1,2.35-.31,5.061,5.061,0,0,1,3.6,1.05A3.9,3.9,0,0,1,82.66-6.8v.42a5.956,5.956,0,0,1-.08,1.08,1.515,1.515,0,0,1-.29.68,1.079,1.079,0,0,1-.55.36,3.019,3.019,0,0,1-.84.1ZM77.9-8.44a3.411,3.411,0,0,0-.87.09.991.991,0,0,0-.52.32,1.335,1.335,0,0,0-.26.63,6.25,6.25,0,0,0-.07,1.04h3.46a6.25,6.25,0,0,0-.07-1.04,1.276,1.276,0,0,0-.27-.63,1.047,1.047,0,0,0-.53-.32A3.411,3.411,0,0,0,77.9-8.44Zm9.6.48v3.78a4.908,4.908,0,0,0,.06.85,1,1,0,0,0,.24.52.94.94,0,0,0,.49.26,3.921,3.921,0,0,0,.83.07h1.01q.29,0,.54-.01t.35-.01L90.54,0h-.33q-.23,0-.51.01t-.55.01h-.43a10.487,10.487,0,0,1-2.2-.19,2.766,2.766,0,0,1-1.35-.66A2.455,2.455,0,0,1,84.5-2.1a9.429,9.429,0,0,1-.18-2.02v-8.76l3.18-.46v2.88h3.64l-.48,2.5Z" transform="translate(37 24)"/></g></svg>